# xmcd
#
# Track frame offsets: 
#        150
#        16638
#        33352
#        46621
#        71846
#        91975
#        108279
#        135034
#        158017
#        175031
#        190858
#        206101
#        219775
#        240890
#
# Disc length: 3414 seconds
#
# Revision: 6
# Processed by: cddbd v1.5.2PL0 Copyright (c) Steve Scherf et al.
# Submitted via: ExactAudioCopyFreeDBPlugin 1.0
#
DISCID=9e0d540e
DTITLE=Lyle Lovett - My Baby Don't Tolerate
DYEAR=2003
DGENRE=Swing
TTITLE0=Cute As A Bug
TTITLE1=My Baby Don't Tolerate
TTITLE2=Truck Song, The
TTITLE3=In My Own Mind
TTITLE4=Nothing But A Good Ride
TTITLE5=Big Dog
TTITLE6=You Were Always There
TTITLE7=Wallisville Road
TTITLE8=Working Too Hard
TTITLE9=San Antonio Girl
TTITLE10=On Saturday Night
TTITLE11=Election Day
TTITLE12=I'm Going To Wait
TTITLE13=I'm Going To The Place
EXTD=YEAR: 2003
EXTT0=
EXTT1=
EXTT2=
EXTT3=
EXTT4=
EXTT5=
EXTT6=
EXTT7=
EXTT8=
EXTT9=
EXTT10=
EXTT11=
EXTT12=
EXTT13=
PLAYORDER=
